<?xml version="1.0" standalone="no"?>
<!DOCTYPE svg PUBLIC "-//W3C//DTD SVG 20010904//EN"
 "http://www.w3.org/TR/2001/REC-SVG-20010904/DTD/svg10.dtd">
<svg version="1.0" xmlns="http://www.w3.org/2000/svg"
 width="232.000000pt" height="113.000000pt" viewBox="0 0 232.000000 113.000000"
 preserveAspectRatio="xMidYMid meet">

<g transform="translate(0.000000,113.000000) scale(0.100000,-0.100000)"
fill="#000000" stroke="none">
<path d="M1924 1023 c4 -9 12 -67 17 -128 6 -60 15 -114 20 -120 12 -12 11 -1
-1 126 -12 118 -17 139 -32 139 -5 0 -7 -8 -4 -17z"/>
<path d="M1190 993 c0 -10 9 -99 20 -198 11 -99 20 -186 20 -193 0 -7 5 -10
11 -6 6 3 9 19 5 35 -6 33 -2 34 34 14 30 -17 50 -19 50 -5 0 6 -6 10 -14 10
-8 0 -27 11 -42 23 l-27 24 22 37 c27 43 22 58 -7 22 -11 -15 -22 -26 -25 -26
-2 0 -10 63 -17 140 -7 77 -17 140 -21 140 -5 0 -9 -8 -9 -17z"/>
<path d="M800 871 c0 -11 7 -55 15 -98 18 -96 18 -96 0 -89 -21 8 -45 -21 -45
-52 0 -44 27 -75 62 -70 16 3 31 1 34 -4 11 -17 25 -8 15 11 -13 23 -61 258
-61 295 0 14 -4 26 -10 26 -5 0 -10 -9 -10 -19z m40 -256 c0 -28 -4 -35 -19
-35 -20 0 -31 18 -31 54 0 30 9 37 31 25 13 -7 19 -21 19 -44z"/>
<path d="M554 843 c13 -50 17 -155 6 -168 -10 -12 -9 -15 3 -15 15 0 27 -39
27 -89 0 -14 5 -33 11 -41 8 -11 9 6 4 58 -6 64 -4 76 12 88 17 13 17 13 -4
14 -19 0 -22 7 -28 58 -9 86 -16 112 -26 112 -6 0 -8 -8 -5 -17z"/>
<path d="M123 830 c-28 -11 -30 -24 -4 -17 23 6 20 15 51 -177 18 -104 19
-130 9 -137 -25 -15 -1 -20 40 -9 44 11 58 30 17 23 -27 -6 -30 5 -61 201 -15
93 -14 99 2 112 17 12 16 13 -7 13 -14 0 -35 -4 -47 -9z"/>
<path d="M371 809 c0 -19 4 -59 9 -89 6 -45 5 -57 -8 -67 -14 -12 -10 -17 10
-14 8 1 14 -21 23 -91 3 -27 11 -48 17 -48 6 0 8 13 4 33 -19 106 -19 117 -2
117 9 0 16 5 16 10 0 6 -8 10 -17 8 -14 -3 -19 10 -28 79 -11 85 -26 122 -24
62z"/>
<path d="M1897 773 c3 -38 10 -72 16 -78 6 -7 8 8 3 45 -3 30 -6 65 -6 78 0
12 -4 22 -10 22 -5 0 -7 -27 -3 -67z"/>
<path d="M274 813 c12 -45 18 -173 7 -173 -6 0 -11 -4 -11 -10 0 -5 6 -10 14
-10 10 0 17 -16 21 -47 11 -87 26 -94 19 -10 -5 66 -3 77 10 77 9 0 16 5 16
11 0 6 -8 8 -19 4 -16 -5 -19 2 -25 52 -11 94 -18 123 -28 123 -5 0 -7 -8 -4
-17z"/>
<path d="M1690 800 c-11 -11 -20 -24 -20 -29 0 -27 15 -41 41 -41 16 0 29 -4
29 -8 0 -15 -24 -32 -44 -32 -15 0 -17 -3 -9 -11 16 -16 48 -2 62 27 14 33 6
45 -27 42 -21 -2 -27 1 -27 17 0 11 10 24 22 31 13 6 20 14 16 17 -11 11 -22
8 -43 -13z"/>
<path d="M1805 810 c-3 -5 -13 -6 -22 -3 -13 5 -15 2 -10 -18 4 -13 10 -41 13
-62 10 -58 24 -54 24 7 0 55 15 81 31 55 5 -8 9 -33 9 -56 0 -24 5 -43 10 -43
13 0 13 59 -1 99 -11 30 -41 43 -54 21z"/>
<path d="M1455 773 c5 -15 25 -108 25 -119 0 -2 4 -4 8 -4 5 0 7 25 4 56 -4
50 -3 56 17 61 11 3 21 9 21 14 0 13 -34 11 -48 -3 -9 -9 -12 -9 -12 0 0 7 -5
12 -11 12 -7 0 -8 -7 -4 -17z"/>
<path d="M1560 770 c-22 -41 12 -110 55 -110 27 0 45 18 45 44 0 20 -1 20 -16
-2 -16 -23 -48 -29 -59 -11 -4 5 1 19 10 29 20 22 16 64 -7 68 -9 2 -22 -6
-28 -18z m33 -26 c-4 -10 -9 -12 -15 -6 -12 12 -1 35 12 27 5 -3 6 -13 3 -21z"/>
<path d="M1354 745 c-15 -22 -15 -30 -3 -62 18 -47 40 -60 73 -45 17 8 26 19
25 34 l0 23 -16 -22 c-8 -13 -24 -23 -35 -23 -25 0 -36 30 -15 42 21 11 22 51
3 67 -12 10 -18 7 -32 -14z m26 -29 c-14 -14 -22 -2 -14 18 5 14 9 15 15 4 4
-7 4 -17 -1 -22z"/>
<path d="M906 701 c-26 -29 -17 -65 17 -69 34 -4 34 -35 -1 -40 -27 -4 -29
-22 -3 -22 23 0 51 35 51 63 0 14 -6 18 -27 15 -23 -2 -29 1 -31 20 -3 17 2
25 17 29 12 3 21 9 21 14 0 16 -26 10 -44 -10z"/>
<path d="M980 710 c0 -5 14 -10 30 -10 17 0 30 -2 30 -5 0 -2 -9 -27 -20 -55
l-20 -50 43 0 c24 0 52 7 63 15 18 14 17 14 -16 9 -19 -3 -41 -7 -47 -10 -17
-5 -16 9 2 53 23 55 20 63 -25 63 -22 0 -40 -4 -40 -10z"/>
<path d="M654 625 c4 -26 10 -54 13 -61 7 -19 42 -28 58 -14 8 6 19 9 24 6 5
-4 12 -2 16 4 3 5 2 10 -4 10 -5 0 -13 20 -17 45 -3 25 -11 48 -17 52 -6 4 -7
-9 -3 -39 5 -35 3 -48 -9 -58 -22 -18 -35 -2 -42 49 -3 23 -10 44 -16 48 -6 4
-7 -11 -3 -42z"/>
<path d="M1862 524 c-6 -11 -18 -45 -27 -77 -46 -157 39 -246 222 -235 59 4
71 3 62 -8 -6 -7 -8 -18 -4 -24 7 -11 94 58 95 76 0 11 -90 58 -97 50 -3 -3
11 -15 31 -27 46 -27 38 -37 -43 -50 -115 -18 -231 23 -247 87 -10 38 2 124
22 167 13 27 15 40 7 48 -8 8 -14 6 -21 -7z"/>
</g>
</svg>
