<svg width="127" height="180" viewBox="0 0 127 180" fill="none" xmlns="http://www.w3.org/2000/svg">
<path d="M3.80604 20.8978C4.45192 20.816 4.88869 21.2594 5.11635 22.2281L5.00009 22.2428L5.16543 22.6156C6.04383 22.5044 8.45092 21.924 12.3867 20.8743C13.062 21.025 13.4357 21.3846 13.5076 21.953C13.6123 22.7797 11.9355 23.5302 8.47719 24.2043L5.12581 25.1012L5.34173 26.8064C5.4955 28.0206 6.6096 32.8801 8.68405 41.3848L13.6444 40.7566C14.3162 40.6716 14.777 40.9938 15.0268 41.7234C15.1283 42.5243 14.5718 43.0017 13.3576 43.1554L8.97849 43.71L8.99812 43.865L9.89768 51.9016C10.1398 53.8134 10.5102 55.184 11.009 56.0133L18.6183 54.5378C19.4581 54.5365 19.9173 54.8458 19.9958 55.4659C20.1005 56.2926 19.2486 56.8205 17.4401 57.0495C12.8225 57.8967 10.5283 58.4366 10.5578 58.6691C9.62772 58.7869 8.8019 57.4478 8.08033 54.6517L7.51361 51.731L6.47715 42.9242L3.01655 27.1008L2.86443 25.8995C2.45875 22.6959 2.73387 21.0336 3.68978 20.9125L3.80604 20.8978ZM11.8011 12.2074C12.654 12.3093 13.1197 12.6704 13.1982 13.2904C13.2309 13.5488 11.8722 15.2564 9.12198 18.4134C7.96468 19.8462 7.26978 20.5773 7.03726 20.6067C6.18763 20.5306 5.71864 20.1437 5.63031 19.4462C9.02075 14.7119 11.0777 12.299 11.8011 12.2074ZM20.2004 40.7139C20.8979 40.6256 21.5339 41.3982 22.1082 43.0317L22.2245 43.017C23.059 41.7301 24.0447 41.0146 25.1814 40.8707C27.0841 40.971 28.0878 41.4345 28.1925 42.2612C28.0515 43.0141 27.6969 43.4265 27.1285 43.4984L25.597 43.2199L25.2095 43.269C23.7212 43.7462 23.3565 46.9817 24.1155 52.9755L24.3462 54.7969C24.2926 55.6174 23.9816 56.0636 23.4132 56.1356C22.5865 56.2403 22.111 55.8018 21.9867 54.82L21.4174 50.3247C20.9986 47.0178 20.2189 44.1766 19.0781 41.801C19.2062 41.1548 19.5803 40.7925 20.2004 40.7139ZM30.1259 20.9511C30.9527 20.8464 31.6301 23.2937 32.1581 28.293C32.7088 33.2632 33.115 36.7817 33.3767 38.8485L33.4542 38.8387L35.7352 38.1955C36.4975 38.204 36.9196 38.5311 37.0014 39.177C37.1126 40.0554 36.3544 40.5977 34.7268 40.8038L33.7633 41.2802L35.7561 54.2183C35.764 55.1097 35.4191 55.5997 34.7216 55.688C33.8949 55.7927 33.4046 55.2379 33.2509 54.0236L32.8632 50.9621L31.6913 42.33L31.4872 41.9621L29.7968 42.2943C29.0538 42.2309 28.6414 41.8763 28.5596 41.2304C28.4582 40.4295 29.2988 39.9162 31.0814 39.6904L31.0618 39.5354C30.6431 36.2285 29.9635 30.4477 29.0232 22.1932C28.9415 21.5473 29.309 21.1333 30.1259 20.9511ZM42.0175 39.7231C43.4643 39.5399 44.6112 40.7202 45.4584 43.2642C45.1563 46.2686 43.959 47.9033 41.8663 48.1683L41.7113 48.188L41.726 48.3042C42.4371 50.6029 43.684 51.6394 45.4666 51.4136C46.8359 51.2402 47.798 49.924 48.3528 47.4651L49.1612 47.0083C49.7296 46.9364 50.1469 47.3298 50.4131 48.1885C50.616 49.7903 49.5544 51.4604 47.2283 53.1986L45.4123 53.783C43.1904 54.0643 41.3229 52.6865 39.8095 49.6494C39.3392 48.4227 39.0517 47.396 38.947 46.5693L38.8832 46.0655C38.5495 43.4303 39.4054 41.3794 41.4509 39.9129L42.0175 39.7231ZM41.202 44.7875L41.2118 44.865L42.1772 45.6484C42.5647 45.5993 42.8594 45.0239 43.0611 43.9221L42.9826 43.3021C42.752 42.5175 42.5333 42.1383 42.3267 42.1645L42.0941 42.1939C41.7066 42.243 41.4092 43.1075 41.202 44.7875ZM43.8841 31.4543C44.7629 31.553 45.2415 31.9124 45.32 32.5325C45.3527 32.7908 43.9924 34.4856 41.2389 37.6167C40.0623 39.1044 39.3707 39.8614 39.164 39.8875C38.3078 39.7597 37.8372 39.3599 37.7521 38.6882C41.1167 33.9572 43.1607 31.5459 43.8841 31.4543ZM49.2756 12.2656C49.8731 12.2162 50.242 12.642 50.3823 13.5429L50.5713 16.5902L53.0566 40.5695L53.139 40.5984C55.2979 37.3326 56.8069 35.6715 57.666 35.6152L57.8598 35.5907C58.4838 35.9579 58.8091 36.3499 58.8356 36.7665C58.8617 36.9732 58.2976 37.7009 57.1433 38.9495C55.4415 41.265 54.5138 42.8524 54.3601 43.7119C54.4524 44.8552 56.6595 46.4263 60.9813 48.4252C62.2283 48.5298 62.8766 48.9859 62.9264 49.7933C62.9434 50.3424 62.5822 50.7031 61.8428 50.8755C60.1795 51.0074 57.5982 49.6936 54.0988 46.9343L53.8663 46.9638C54.0221 49.4377 54.2055 50.9895 54.4164 51.619C54.4035 53.5894 53.8915 54.6255 52.8807 54.7272C51.9827 54.6834 51.504 54.324 51.4448 53.6491L52.0099 52.5144L48.2461 16.8846L48.0135 13.8035C48.0216 12.8312 48.4423 12.3186 49.2756 12.2656ZM66.5978 36.6104C68.0445 36.4272 69.1915 37.6076 70.0386 40.1515C69.7366 43.156 68.5393 44.7907 66.4466 45.0557L66.2916 45.0753L66.3063 45.1916C67.0174 47.4903 68.2642 48.5267 70.0469 48.301C71.4162 48.1276 72.3782 46.8114 72.9331 44.3524L73.7415 43.8957C74.3099 43.8237 74.7272 44.2171 74.9934 45.0759C75.1962 46.6777 74.1346 48.3477 71.8085 50.086L69.9925 50.6703C67.7707 50.9517 65.9031 49.5738 64.3898 46.5368C63.9195 45.3101 63.632 44.2834 63.5273 43.4567L63.4635 42.9529C63.1298 40.3177 63.9857 38.2668 66.0312 36.8003L66.5978 36.6104ZM65.7822 41.6749L65.792 41.7524L66.7575 42.5357C67.145 42.4867 67.4396 41.9112 67.6414 40.8095L67.5629 40.1894C67.3323 39.4049 67.1136 39.0257 66.9069 39.0519L66.6744 39.0813C66.2869 39.1304 65.9895 39.9949 65.7822 41.6749ZM74.3349 14.8016C74.7257 14.7783 75.1283 15.0555 75.5427 15.633C75.3978 15.9401 75.347 16.4715 75.3902 17.2273L75.4152 17.736L77.5812 32.9752C78.3288 39.9155 79.0492 44.9823 79.7423 48.1757L79.8591 48.4759C79.6887 48.9963 79.3436 49.2762 78.8236 49.3158C77.6512 49.3855 76.9833 47.8426 76.82 44.6871C76.449 43.0016 75.3786 35.1704 73.6087 21.1935C73.3457 20.3605 73.1647 19.2416 73.0655 17.8367L73.0459 17.6817C72.9428 15.831 73.3724 14.871 74.3349 14.8016ZM85.5761 14.7562C85.8861 14.7169 86.2514 14.9069 86.672 15.3262L87.04 18.2326C88.1262 26.81 89.9999 36.0095 92.6611 45.8311L93.7988 48.2857C93.6997 48.9545 93.3402 49.3282 92.7201 49.4067C91.9192 49.5081 91.2282 48.6112 90.6469 46.7161L90.3757 46.7505C89.531 47.7499 88.6436 48.3085 87.7135 48.4263C85.595 48.6946 83.8457 47.5249 82.4655 44.9172C82.0151 44.0555 81.7114 43.0046 81.5544 41.7645C81.1814 38.8193 81.9047 36.6539 83.7243 35.2685L84.567 35.0831L84.6833 35.0684C85.4583 34.9702 86.4342 35.2141 87.6109 35.8001L87.7659 35.7805L87.7512 35.6642C86.3387 29.0707 85.3642 23.6554 84.8277 19.4184L84.4989 16.822C84.3386 15.556 84.6977 14.8674 85.5761 14.7562ZM83.8648 41.3538L83.9777 42.2451C84.2198 44.1569 85.0924 45.4508 86.5955 46.1267L87.4191 46.1011C88.6592 45.9441 89.1255 44.6513 88.8179 42.2228L88.6805 41.1377C88.4025 38.9417 87.0907 37.7035 84.7452 37.423C83.9097 38.08 83.6162 39.3903 83.8648 41.3538ZM17.4463 94.1001L19.8206 94.1932L19.8058 94.0769C20.3742 94.0049 20.8707 94.4014 21.2952 95.2664L21.4881 97.7226L21.704 99.4277C22.0214 101.934 22.6202 103.761 23.5007 104.909C23.3758 105.582 23.0162 105.955 22.422 106.03C21.5694 106.138 20.8251 105.235 20.1889 103.321L20.0329 102.711L19.6841 102.755C19.0321 105.068 17.8994 106.695 16.2858 107.634L15.7242 107.863C13.4238 107.524 12.1068 106.037 11.7731 103.402L11.7436 103.17C11.3281 99.8885 12.5866 97.0779 15.519 94.7379L17.4463 94.1001ZM14.1621 103.611C14.5065 104.88 15.0016 105.474 15.6475 105.392L15.7638 105.377C16.668 105.263 17.7438 102.357 18.9912 96.6607L18.9764 96.5444L17.8232 96.4542L17.7456 96.464C15.6788 96.7257 14.4319 98.6949 14.005 102.371L14.1621 103.611ZM32.6404 90.2467C33.3638 90.1551 34.0439 91.2764 34.6807 93.6108C36.3589 96.7057 37.5101 98.5418 38.1345 99.1189L38.2507 99.1042C38.1791 92.7346 38.6729 89.4828 39.7322 89.3486L39.8872 89.329C40.6208 89.5249 41.0219 89.8941 41.0906 90.4366C40.605 91.7843 40.4329 96.2292 40.5742 103.771C40.0938 104.331 39.7503 104.624 39.5436 104.65C38.9235 104.728 37.8537 103.328 36.3342 100.449C33.7639 96.9424 32.1796 93.9669 31.5814 91.5226C31.5257 91.0834 31.8788 90.6581 32.6404 90.2467ZM48.4844 90.1697L50.8586 90.2628L50.8439 90.1465C51.4123 90.0745 51.9087 90.471 52.3333 91.336L52.5262 93.7922L52.7421 95.4973C53.0594 98.0033 53.6583 99.8306 54.5387 100.979C54.4139 101.651 54.0543 102.025 53.4601 102.1C52.6075 102.208 51.8631 101.305 51.227 99.3904L51.071 98.7801L50.7222 98.8243C50.0702 101.138 48.9374 102.765 47.3239 103.704L46.7622 103.933C44.4619 103.594 43.1448 102.107 42.8111 99.4717L42.7817 99.2392C42.3662 95.9581 43.6247 93.1475 46.557 90.8075L48.4844 90.1697ZM45.2001 99.6811C45.5446 100.95 46.0397 101.543 46.6856 101.462L46.8018 101.447C47.7061 101.332 48.7819 98.4269 50.0292 92.7303L50.0145 92.614L48.8612 92.5238L48.7837 92.5336C46.7169 92.7953 45.47 94.7645 45.0431 98.441L45.2001 99.6811ZM49.286 82.5083C50.1131 82.6135 50.5643 82.9633 50.6395 83.5575C50.6755 83.8417 49.3297 85.5477 46.6021 88.6756C45.3996 90.1666 44.6951 90.9251 44.4884 90.9513C43.6581 90.8202 43.2004 90.4188 43.1153 89.7471C46.4799 85.0161 48.5368 82.6031 49.286 82.5083ZM58.8292 87.0879C60.1726 86.9177 61.0584 87.3831 61.4865 88.4838C61.5552 89.0264 61.2361 89.408 60.529 89.6288L60.1803 89.673C59.815 89.483 59.5031 89.4044 59.2448 89.4371L58.896 89.4812C57.2825 90.4206 56.5673 91.6136 56.7505 93.0604L56.7947 93.4092C57.0318 94.2454 57.4862 94.6209 58.158 94.5359L58.5067 94.4917L61.1169 93.6493C62.4541 93.6375 63.1947 94.1999 63.3387 95.3367C63.5513 97.016 62.7582 98.9408 60.9593 101.111C60.095 101.955 59.172 102.44 58.1902 102.564C56.3585 102.402 55.374 101.779 55.2366 100.694C55.4131 100.015 55.8114 99.6367 56.4315 99.5582L57.7408 100.259L58.3608 100.18C60.1552 99.2179 60.9493 97.923 60.7432 96.2953L60.5686 96.16C59.9522 96.4743 59.2435 96.6821 58.4426 96.7836C56.5308 97.0256 55.1982 95.9344 54.445 93.5098C54.1603 91.2622 55.1811 89.2692 57.5072 87.5309L58.8292 87.0879ZM69.8481 87.4644L72.2224 87.5575L72.2077 87.4412C72.7761 87.3692 73.2725 87.7657 73.697 88.6307L73.8899 91.0869L74.1059 92.792C74.4232 95.298 75.0221 97.1253 75.9025 98.2738C75.7776 98.9458 75.4181 99.3195 74.8238 99.3947C73.9713 99.5027 73.2269 98.5995 72.5907 96.6851L72.4347 96.0748L72.0859 96.119C71.434 98.4328 70.3012 100.059 68.6877 100.999L68.126 101.227C65.8256 100.889 64.5086 99.4016 64.1749 96.7664L64.1455 96.5339C63.73 93.2528 64.9884 90.4422 67.9208 88.1022L69.8481 87.4644ZM66.5639 96.9757C66.9083 98.2446 67.4035 98.8382 68.0494 98.7564L68.1656 98.7416C69.0699 98.6271 70.1456 95.7216 71.393 90.0249L71.3783 89.9087L70.225 89.8185L70.1475 89.8283C68.0807 90.09 66.8338 92.0591 66.4069 95.7357L66.5639 96.9757ZM70.6498 79.803C71.4769 79.9082 71.928 80.258 72.0033 80.8522C72.0393 81.1364 70.6935 82.8424 67.9658 85.9702C66.7634 87.4612 66.0589 88.2198 65.8522 88.246C65.0218 88.1149 64.5641 87.7135 64.4791 87.0418C67.8437 82.3108 69.9006 79.8978 70.6498 79.803ZM75.5509 84.1041C76.2484 84.0158 76.8844 84.7884 77.4587 86.4219L77.575 86.4072C78.4095 85.1202 79.3951 84.4048 80.5319 84.2609C82.4346 84.3612 83.4383 84.8247 83.5429 85.6514C83.402 86.4043 83.0474 86.8167 82.479 86.8886L80.9475 86.6101L80.56 86.6592C79.0717 87.1364 78.707 90.3719 79.466 96.3657L79.6967 98.1871C79.6431 99.0076 79.3321 99.4538 78.7637 99.5258C77.937 99.6305 77.4615 99.192 77.3371 98.2102L76.7679 93.7149C76.3491 90.408 75.5694 87.5667 74.4285 85.1912C74.5567 84.545 74.9308 84.1826 75.5509 84.1041ZM83.8964 63.9901C84.2872 63.9669 84.6897 64.244 85.1041 64.8215C84.9593 65.1286 84.9084 65.66 84.9516 66.4158L84.9767 66.9245L87.1427 82.1637C87.8903 89.104 88.6107 94.1708 89.3038 97.3642L89.4206 97.6645C89.2502 98.1848 88.905 98.4647 88.3851 98.5043C87.2127 98.574 86.5448 97.0311 86.3814 93.8756C86.0105 92.1901 84.9401 84.3589 83.1702 70.382C82.9072 69.549 82.7261 68.4301 82.627 67.0252L82.6073 66.8702C82.5042 65.0195 82.9339 64.0595 83.8964 63.9901ZM96.8559 84.0443L99.2301 84.1374L99.2154 84.0212C99.7838 83.9492 100.28 84.3457 100.705 85.2107L100.898 87.6668L101.114 89.372C101.431 91.878 102.03 93.7053 102.91 94.8537C102.785 95.5258 102.426 95.8995 101.832 95.9747C100.979 96.0827 100.235 95.1794 99.5985 93.265L99.4425 92.6548L99.0937 92.699C98.4417 95.0127 97.309 96.6393 95.6954 97.5786L95.1338 97.8072C92.8334 97.4685 91.5164 95.9816 91.1827 93.3464L91.1532 93.1139C90.7377 89.8328 91.9962 87.0222 94.9286 84.6821L96.8559 84.0443ZM93.5716 93.5557C93.9161 94.8246 94.4112 95.4181 95.0571 95.3363L95.1734 95.3216C96.0776 95.2071 97.1534 92.3015 98.4008 86.6049L98.386 86.4887L97.2327 86.3985L97.1552 86.4083C95.0884 86.67 93.8415 88.6391 93.4146 92.3156L93.5716 93.5557ZM97.6576 76.3829C98.4846 76.4882 98.9358 76.8379 99.011 77.4321C99.047 77.7163 97.7012 79.4224 94.9736 82.5502C93.7712 84.0412 93.0666 84.7998 92.8599 84.826C92.0296 84.6949 91.5719 84.2935 91.4868 83.6217C94.8514 78.8907 96.9083 76.4778 97.6576 76.3829ZM107.201 80.9625C108.544 80.7924 109.43 81.2577 109.858 82.3585C109.927 82.901 109.608 83.2827 108.901 83.5035L108.552 83.5476C108.186 83.3576 107.875 83.279 107.616 83.3117L107.268 83.3559C105.654 84.2952 104.939 85.4882 105.122 86.935L105.166 87.2838C105.403 88.12 105.858 88.4956 106.529 88.4105L106.878 88.3664L109.488 87.524C110.826 87.5121 111.566 88.0746 111.71 89.2113C111.923 90.8906 111.13 92.8154 109.331 94.9857C108.467 95.8301 107.544 96.3145 106.562 96.4388C104.73 96.277 103.745 95.6536 103.608 94.5685C103.785 93.8899 104.183 93.5114 104.803 93.4328L106.112 94.1333L106.732 94.0548C108.527 93.0925 109.321 91.7976 109.115 90.17L108.94 90.0346C108.324 90.3489 107.615 90.5568 106.814 90.6582C104.902 90.9003 103.57 89.8091 102.816 87.3845C102.532 85.1368 103.553 83.1438 105.879 81.4055L107.201 80.9625ZM113.34 75.1451C114.012 75.06 114.481 75.4469 114.747 76.3057C114.8 76.719 114.566 77.1555 114.047 77.615L113.659 77.6641C112.936 77.7557 112.519 77.3623 112.407 76.4839C112.513 75.6568 112.824 75.2105 113.34 75.1451ZM114.274 80.3424C115.169 80.3604 115.58 81.634 115.506 84.1632C115.455 86.2435 115.836 89.6732 116.652 94.4524C116.359 95.2507 115.896 95.6374 115.263 95.6126C114.526 95.6009 114.067 94.3597 113.886 91.8889C113.291 87.6068 113.056 83.9879 113.18 81.0322C113.183 80.6381 113.547 80.4082 114.274 80.3424ZM20.9458 143.19C22.3926 143.007 23.5395 144.187 24.3867 146.731C24.0846 149.736 22.8873 151.37 20.7946 151.635L20.6396 151.655L20.6543 151.771C21.3654 154.07 22.6123 155.106 24.3949 154.881C25.7642 154.707 26.7262 153.391 27.2811 150.932L28.0895 150.475C28.6579 150.403 29.0752 150.797 29.3414 151.655C29.5443 153.257 28.4826 154.927 26.1565 156.666L24.3406 157.25C22.1187 157.531 20.2511 156.153 18.7378 153.116C18.2675 151.89 17.98 150.863 17.8753 150.036L17.8115 149.532C17.4778 146.897 18.3337 144.846 20.3792 143.38L20.9458 143.19ZM20.1302 148.254L20.1401 148.332L21.1055 149.115C21.493 149.066 21.7877 148.491 21.9894 147.389L21.9109 146.769C21.6803 145.984 21.4616 145.605 21.2549 145.631L21.0224 145.661C20.6349 145.71 20.3375 146.574 20.1302 148.254ZM22.8124 134.921C23.6911 135.02 24.1698 135.379 24.2483 135.999C24.281 136.258 22.9206 137.952 20.1672 141.084C18.9906 142.571 18.299 143.328 18.0923 143.354C17.2361 143.227 16.7655 142.827 16.6804 142.155C20.045 137.424 22.089 135.013 22.8124 134.921ZM28.6829 121.381C29.0737 121.358 29.4763 121.635 29.8907 122.213C29.7458 122.52 29.695 123.051 29.7382 123.807L29.7632 124.316L31.9292 139.555C32.6768 146.495 33.3972 151.562 34.0903 154.755L34.2071 155.055C34.0368 155.576 33.6916 155.856 33.1716 155.895C31.9992 155.965 31.3313 154.422 31.168 151.267C30.7971 149.581 29.7266 141.75 27.9567 127.773C27.6937 126.94 27.5127 125.821 27.4135 124.416L27.3939 124.261C27.2908 122.411 27.7205 121.451 28.6829 121.381ZM46.4841 139.247C48.4845 139.913 49.7536 142.679 50.2911 147.546C50.7474 150.113 51.3236 151.864 52.0196 152.8L52.0392 152.955C52.0562 153.504 51.687 153.905 50.9316 154.158C49.4943 154.209 48.326 150.787 47.4266 143.892L46.6583 142.178L46.1884 142.198C45.4441 143.369 45.1039 144.724 45.1678 146.265C45.1567 147.422 45.3519 149.274 45.7533 151.822C45.4541 152.568 45.0428 152.948 44.5196 152.962C43.6248 152.944 43.0117 151.316 42.6803 148.076C41.7998 144.854 41.085 143.252 40.5359 143.269L40.3033 143.298C39.5577 143.629 39.1957 144.501 39.2174 145.916L40.557 153.385L40.582 153.894C40.5765 154.472 40.1734 154.917 39.3729 155.228C38.0647 155.263 37.0417 150.812 36.3038 141.875C36.3126 141.323 36.6673 140.91 37.3678 140.638C38.1272 140.831 38.5168 141.109 38.5368 141.474L38.6531 141.46L40.3626 140.967C41.2541 140.96 42.2208 141.546 43.2628 142.726L43.3452 142.755C44.3337 140.819 45.38 139.65 46.4841 139.247ZM55.2004 138.852C56.6471 138.669 57.7941 139.849 58.6412 142.393C58.3392 145.398 57.1418 147.033 55.0492 147.298L54.8942 147.317L54.9089 147.433C55.62 149.732 56.8668 150.769 58.6495 150.543C60.0187 150.369 60.9808 149.053 61.5357 146.594L62.3441 146.138C62.9124 146.066 63.3298 146.459 63.596 147.318C63.7988 148.92 62.7372 150.59 60.4111 152.328L58.5951 152.912C56.3733 153.194 54.5057 151.816 52.9924 148.779C52.5221 147.552 52.2346 146.525 52.1299 145.699L52.0661 145.195C51.7324 142.56 52.5883 140.509 54.6338 139.042L55.2004 138.852ZM54.3848 143.917L54.3946 143.994L55.3601 144.778C55.7476 144.729 56.0422 144.153 56.244 143.051L56.1654 142.431C55.9348 141.647 55.7162 141.268 55.5095 141.294L55.277 141.323C54.8895 141.372 54.5921 142.237 54.3848 143.917ZM57.067 130.584C57.9457 130.682 58.4244 131.042 58.5029 131.662C58.5356 131.92 57.1752 133.615 54.4218 136.746C53.2452 138.234 52.5535 138.991 52.3469 139.017C51.4907 138.889 51.0201 138.489 50.935 137.817C54.2996 133.086 56.3436 130.675 57.067 130.584ZM70.121 137.081C72.7566 136.957 74.2133 139.962 74.4913 146.096L74.618 149.584C74.5808 150.534 74.1843 151.03 73.4285 151.073C72.7244 151.11 72.3555 150.684 72.3218 149.796L72.117 146.002C71.9193 141.539 71.2471 139.34 70.1006 139.407C68.8732 139.457 68.286 141.868 68.3389 146.638L69.0239 150.804C69.0409 151.353 68.6377 151.693 67.8142 151.824C66.8485 151.867 66.3134 150.544 66.209 147.853L64.1551 139.096C64.1315 138.496 64.5686 138.112 65.4663 137.946C66.0121 137.903 66.4086 138.444 66.6559 139.567L66.8159 139.586C67.7952 137.992 68.897 137.157 70.121 137.081ZM75.9397 136.502C76.7406 136.4 77.2948 137.564 77.6023 139.992L77.9017 142.356C78.291 145.431 79.1444 146.884 80.462 146.718L80.5783 146.703C81.368 145.684 81.6664 144.413 81.4734 142.888L80.8992 138.354C80.7814 137.424 81.268 136.706 82.359 136.201L82.824 136.142C83.448 136.509 83.778 136.835 83.814 137.119L83.828 142.826L85.176 152.539L85.4115 154.399C86.6286 164.01 85.6623 169.749 82.5127 171.618L81.5783 172.012C79.6665 172.254 77.8638 171.078 76.1703 168.484L74.2889 164.509C74.4363 163.808 74.7555 163.426 75.2464 163.364L75.5951 163.32C76.086 163.258 76.9799 164.72 78.2767 167.705C79.3739 169.115 80.323 169.769 81.1239 169.668C83.3199 169.39 84.0226 164.471 83.2321 154.911L82.9229 152.47L82.2575 148.459L80.6015 149.062C78.1988 149.367 76.5172 147.178 75.5568 142.496L74.8075 137.511C74.9681 136.913 75.3455 136.577 75.9397 136.502ZM85.9976 114.675C86.8243 114.57 87.5017 117.017 88.0298 122.016C88.5804 126.987 88.9866 130.505 89.2483 132.572L89.3258 132.562L91.6068 131.919C92.3692 131.927 92.7912 132.255 92.873 132.901C92.9842 133.779 92.226 134.321 90.5984 134.527L89.635 135.004L91.6277 147.942C91.6356 148.833 91.2908 149.323 90.5932 149.411C89.7665 149.516 89.2763 148.961 89.1225 147.747L88.7348 144.686L87.563 136.054L87.3589 135.686L85.6685 136.018C84.9254 135.954 84.513 135.6 84.4313 134.954C84.3298 134.153 85.1704 133.64 86.9531 133.414L86.9335 133.259C86.5147 129.952 85.8352 124.171 84.8949 115.917C84.8131 115.271 85.1807 114.857 85.9976 114.675ZM93.8348 112.934C94.894 112.8 95.7786 115.536 96.4885 121.142L97.7917 136.097L98.4958 140.103C98.5678 140.671 98.1711 141.063 97.3058 141.277C96.479 141.382 95.8596 139.807 95.4473 136.551L94.3395 122.517L94.1089 120.695C93.8308 118.499 93.3331 116.331 92.6158 114.191C92.5438 113.622 92.9501 113.204 93.8348 112.934ZM98.1453 145.108C98.6362 145.046 98.9776 145.462 99.1696 146.357C99.2121 146.693 98.9301 147.056 98.3235 147.448C97.4964 147.343 97.0452 146.993 96.97 146.399C96.8849 145.727 97.2767 145.297 98.1453 145.108Z" fill="#616161"/>
</svg>
